<svg width="300" height="300" viewBox="0 0 300 300" xmlns="http://www.w3.org/2000/svg">
  <!-- 背景 -->
  <rect width="300" height="300" fill="#FFF8F0"/>
  
  <!-- 盘子 -->
  <ellipse cx="150" cy="200" rx="120" ry="80" fill="#FFFFFF" stroke="#E0E0E0" stroke-width="2"/>
  
  <!-- 鸡肉片 -->
  <ellipse cx="120" cy="160" rx="18" ry="12" fill="#F5F5DC" stroke="#E6E6E6" stroke-width="1" transform="rotate(15 120 160)"/>
  <ellipse cx="150" cy="155" rx="20" ry="14" fill="#F5F5DC" stroke="#E6E6E6" stroke-width="1" transform="rotate(-10 150 155)"/>
  <ellipse cx="180" cy="165" rx="19" ry="13" fill="#F5F5DC" stroke="#E6E6E6" stroke-width="1" transform="rotate(25 180 165)"/>
  <ellipse cx="135" cy="180" rx="17" ry="11" fill="#F5F5DC" stroke="#E6E6E6" stroke-width="1" transform="rotate(-20 135 180)"/>
  <ellipse cx="165" cy="175" rx="21" ry="15" fill="#F5F5DC" stroke="#E6E6E6" stroke-width="1" transform="rotate(30 165 175)"/>
  
  <!-- 鸡皮纹理 -->
  <path d="M 115 155 Q 120 158 125 155" stroke="#DDD" stroke-width="0.5" fill="none"/>
  <path d="M 145 150 Q 150 153 155 150" stroke="#DDD" stroke-width="0.5" fill="none"/>
  <path d="M 175 160 Q 180 163 185 160" stroke="#DDD" stroke-width="0.5" fill="none"/>
  
  <!-- 姜丝 -->
  <rect x="125" y="170" width="12" height="1" rx="0.5" fill="#F4D03F" transform="rotate(45 131 170.5)"/>
  <rect x="155" y="165" width="10" height="1" rx="0.5" fill="#F7DC6F" transform="rotate(-30 160 165.5)"/>
  <rect x="170" y="180" width="11" height="1" rx="0.5" fill="#F4D03F" transform="rotate(60 175.5 180.5)"/>
  
  <!-- 葱丝 -->
  <rect x="140" y="185" width="8" height="0.8" rx="0.4" fill="#27AE60" transform="rotate(20 144 185.4)"/>
  <rect x="160" y="170" width="9" height="0.8" rx="0.4" fill="#2ECC71" transform="rotate(-15 164.5 170.4)"/>
  
  <!-- 蘸料碟 -->
  <ellipse cx="200" cy="180" rx="15" ry="10" fill="#8B4513" opacity="0.8"/>
  <ellipse cx="200" cy="178" rx="12" ry="8" fill="#A0522D" opacity="0.6"/>
  
  <!-- 清淡光泽 -->
  <ellipse cx="150" cy="165" rx="50" ry="30" fill="#FFFFFF" opacity="0.2"/>
  
  <!-- 装饰性香气 -->
  <path d="M 110 140 Q 115 130 120 140 Q 125 130 130 140" stroke="#27AE60" stroke-width="1.5" fill="none" opacity="0.3"/>
  <path d="M 170 135 Q 175 125 180 135 Q 185 125 190 135" stroke="#27AE60" stroke-width="1.5" fill="none" opacity="0.3"/>
</svg>